<svg width="112" height="121" viewBox="0 0 112 121" fill="none" xmlns="http://www.w3.org/2000/svg">
<g clip-path="url(#clip0_535_220)">
<path d="M66.8553 0H49.1992V17.6561L58.0289 8.82804L66.8553 0Z" fill="#F9D04A"/>
<path d="M47.9338 112.771C59.8727 112.771 69.5534 103.091 69.5534 91.1516H58.7436C58.7436 97.1219 53.9041 101.963 47.9338 101.963C41.9635 101.963 37.124 97.1219 37.124 91.1516H26.3125C26.3125 103.091 35.9915 112.771 47.9338 112.771Z" fill="#6AC379"/>
<path d="M70.9626 35.209H111.999C111.999 23.8779 102.812 14.6902 91.4798 14.6902C80.147 14.6902 70.9609 23.8763 70.9609 35.209H70.9626Z" fill="#6AC379"/>
<path d="M76.9453 36.6528H111.523V37.1574C111.523 55.9459 96.2384 71.2306 77.4499 71.2306H76.9453V36.6528ZM110.509 37.6637H77.9545V70.218C95.7838 69.9482 110.239 55.4946 110.509 37.6637Z" fill="#F9D04A"/>
<path d="M47.0882 21.5598C47.0882 21.9395 46.8034 22.2259 46.2788 22.2259C44.805 22.3209 43.9007 22.7972 43.2828 23.5582C42.3319 24.6041 41.8556 26.1262 41.5709 28.0763C41.3327 29.7883 41.2378 32.0715 41.2378 33.2606C37.7189 35.0209 32.8194 36.3048 27.3021 36.3048C18.3142 36.3048 11.418 31.2638 11.418 22.0844C11.418 21.4665 11.4663 20.8953 11.5129 20.2292C12.2756 11.2879 18.8854 1.30078 33.3906 1.30078C35.8154 1.30078 38.4317 1.91863 40.6666 2.96613C41.0463 3.15598 41.5226 3.39413 41.9506 3.39413C42.3303 3.39413 42.4735 3.20428 42.6167 2.91784C42.8065 2.44155 43.093 2.20507 43.521 2.20507C44.0922 2.20507 44.3287 2.63306 44.3287 3.15598C44.3287 5.67733 43.2345 10.1954 42.5218 12.6685C42.2836 13.4778 41.9506 14.0474 41.2844 14.0474C40.6183 14.0474 40.4284 13.5245 40.4284 12.8583C40.2852 9.95729 39.8106 8.00716 38.7631 6.24688C37.7639 4.5349 36.0052 3.01276 32.9127 3.01276C27.9666 3.01276 23.1154 7.91223 22.0696 18.3274C21.8797 19.9927 21.7848 21.5132 21.7848 22.8921C21.7848 27.4585 22.6891 33.7835 28.5861 33.7835C31.6304 33.7835 33.722 31.6435 34.1983 27.6C34.245 27.0771 34.2933 26.6491 34.2933 26.2678C34.2933 24.7456 33.9119 24.0329 33.294 23.4133C32.6762 22.7955 31.8202 22.3675 30.4413 22.2243C30.1082 22.1776 29.8701 21.9395 29.8701 21.5581C29.8701 21.1768 30.2032 20.892 30.6311 20.892H46.4204C46.8484 20.892 47.0865 21.1768 47.0865 21.5098V21.5581L47.0882 21.5598Z" fill="#202C56"/>
<path d="M76.8609 3.24921L75.9099 9.90729C75.8616 10.3819 75.5286 10.715 75.1006 10.715C74.6726 10.715 74.3395 10.4302 74.2929 10.0022C73.9598 7.24439 73.0089 4.4849 69.3934 4.15183C68.2993 4.05691 67.2051 4.05691 66.1127 4.10354C64.3058 4.15183 63.9727 4.53153 63.6862 5.95874L61.5463 16.7552H63.2582C65.7796 16.7552 67.4916 16.5654 68.2526 16.2323C69.7748 15.5662 70.4409 14.1873 70.9638 12.76C71.1071 12.332 71.3918 12.0939 71.7715 12.0939H71.8198C72.2945 12.1405 72.5326 12.5685 72.4377 12.9982C72.1529 15.1382 70.6308 22.1293 70.3926 23.1752C70.346 23.5082 70.1545 23.9845 69.5366 23.9845C69.3468 23.9845 68.8705 23.9362 68.8705 23.1285C68.7756 19.5613 67.7764 18.5621 63.971 18.5621H61.1649L58.93 29.6917C58.8351 30.168 58.7868 30.596 58.7868 30.9757C58.7868 31.9749 59.1665 32.6877 60.1657 33.069C60.7835 33.2589 61.831 33.4021 62.8769 33.4021C64.7321 33.4021 66.6822 32.9258 68.2993 32.0232C70.7257 30.596 72.0563 28.6458 73.2937 26.2694C73.4369 25.9846 73.675 25.6032 74.1497 25.6032C74.5777 25.6032 74.8158 25.888 74.8158 26.316C74.8158 26.4109 74.8158 26.5059 74.7692 26.6491C74.3412 28.6941 73.3903 31.88 72.2478 34.2581C71.9148 34.9242 71.4868 35.209 70.6791 35.209H45.8536C45.4723 35.209 45.1875 34.9709 45.1875 34.5429C45.1875 34.1632 45.4723 33.8767 46.0435 33.8767C47.7088 33.8301 48.7064 33.4021 49.5158 32.4029C50.2768 31.4986 50.7531 30.2146 51.1811 28.1229L54.9381 9.14623C55.1763 8.00546 55.3195 7.10117 55.3195 6.34011C55.3195 5.57904 55.1763 5.00782 54.8432 4.62812C54.2254 3.91535 52.988 3.67721 51.6574 3.58228C51.2294 3.58228 50.9913 3.29751 50.9913 2.96444V2.91614C51.0396 2.53478 51.3243 2.25 51.7523 2.25H75.9599C76.5777 2.25 76.8642 2.53478 76.8642 3.0577V3.24755L76.8609 3.24921Z" fill="#202C56"/>
<path d="M110.433 1.53734L109.72 9.71756C109.672 10.1938 109.244 10.5736 108.864 10.5736C108.388 10.5736 108.055 10.2888 107.96 9.71756C107.914 9.38449 107.865 8.48187 107.865 8.33865C107.722 5.15283 106.296 4.05869 102.586 4.05869H100.779L96.0229 28.0281C95.7848 29.1223 95.6432 30.1215 95.6432 30.9775C95.6432 31.7868 95.7865 32.4513 96.1662 32.8793C96.784 33.5921 98.068 33.7836 99.352 33.8785C99.7333 33.8785 100.018 34.1633 100.018 34.4963V34.543C99.9715 34.9243 99.685 35.2091 99.257 35.2091H82.0406C81.6593 35.2091 81.3745 34.9243 81.3745 34.543C81.3745 34.1616 81.7076 33.8768 82.1822 33.8768C83.9891 33.7819 85.2264 33.6387 86.2257 32.4979C86.9867 31.5936 87.463 30.2147 87.891 28.0747L92.6939 4.05702H90.5056C89.0784 4.05702 87.3198 4.29517 85.7494 5.29438C84.3222 6.2453 83.4195 8.00558 82.7534 9.57434C82.5153 10.1456 82.1355 10.6202 81.5643 10.6202C81.1363 10.6202 80.8516 10.1922 80.8516 9.76419C80.8516 9.66926 80.8516 9.57434 80.8982 9.47941L83.4195 1.2509C83.5628 0.822907 83.8958 0.633057 84.3238 0.633057C84.7518 0.633057 85.0366 0.917832 85.0849 1.44242C85.1332 2.06026 85.3697 2.25011 86.2257 2.25011H106.628C107.769 2.25011 108.483 2.15519 108.768 1.2509C108.863 0.917832 109.148 0.633057 109.624 0.633057C110.147 0.633057 110.433 1.01276 110.433 1.44242V1.53734Z" fill="#202C56"/>
<path d="M31.2454 75.0994C29.4851 75.1943 28.3443 75.3375 27.3451 76.4783C26.584 77.3826 26.2043 78.7615 25.7763 80.8532L21.9244 100.353C21.115 104.633 19.7361 107.677 17.2164 110.53C13.1263 115.096 9.0845 116.617 4.89947 116.617C2.18827 116.617 0 115.284 0 112.575C0 110.53 1.52213 108.818 3.61382 108.818C5.27917 108.818 6.18179 110.055 6.18179 111.386C6.18179 112.242 5.7538 112.718 5.7538 113.431C5.7538 114.24 6.27672 114.715 7.13271 114.715C10.1287 114.715 11.461 110.481 12.1271 108.2C12.7932 105.965 13.1729 103.587 13.6009 101.352L17.7377 80.7116C17.9758 79.4276 18.119 78.4284 18.119 77.6673C18.119 76.9546 17.9758 76.43 17.691 76.0503C17.1198 75.3841 15.9308 75.2409 14.3137 75.0994C13.9806 75.0994 13.7425 74.8146 13.7425 74.4815V74.4332C13.7425 74.0535 14.0273 73.7671 14.5036 73.7671H31.4352C31.8149 73.7671 32.1013 74.0519 32.1013 74.4332C32.1013 74.8612 31.7683 75.0994 31.2454 75.0994Z" fill="#202C56"/>
<path d="M63.0588 100.448C58.6839 105.299 52.5004 107.724 45.9856 107.724C36.8544 107.724 29.8633 102.777 29.8633 93.0751C29.8633 88.2723 31.8134 83.6576 34.9992 80.0438C39.3275 75.1926 45.5093 72.7678 51.9775 72.7678C61.0603 72.7678 68.1947 77.8571 68.1947 87.4163C68.1947 92.2191 66.2446 96.8338 63.0588 100.448ZM51.0732 74.4798C42.5599 74.4798 40.1818 87.6527 40.1818 94.0744C40.1818 98.5458 41.0378 106.012 46.9831 106.012C55.4481 106.012 57.7796 92.7904 57.7796 86.3704C57.7796 81.9472 56.9236 74.4815 51.0732 74.4815V74.4798Z" fill="#202C56"/>
<path d="M100.535 81.2344C100.107 84.8016 97.1112 87.5594 92.4982 88.1306L92.4499 88.3205C97.6808 88.6053 100.392 90.9834 100.392 95.1684C100.392 95.6913 100.345 96.2625 100.297 96.8338C99.3927 102.826 92.9262 106.726 85.4587 106.726H67.338C66.91 106.726 66.6719 106.488 66.6719 106.108C66.6719 105.68 67.0049 105.442 67.4812 105.395C69.1932 105.3 70.1441 105.157 71.0951 104.063C71.9044 103.112 72.1892 101.875 72.6638 99.6399L76.231 81.7107C76.4692 80.4733 76.6107 79.7139 76.6107 78.9046C76.6107 77.1443 75.9446 76.4798 74.1377 76.4798C73.5198 76.4798 72.8054 76.5264 72.1409 76.623C72.046 76.6713 71.951 76.6713 71.9028 76.6713C71.4748 76.6713 71.2366 76.4332 71.2366 76.0535C71.2366 75.6738 71.4748 75.4356 71.9028 75.3407C76.659 73.8186 84.5528 73.2957 87.7869 73.2957C94.2068 73.2957 100.58 74.9127 100.58 80.3351C100.58 80.6199 100.58 80.953 100.532 81.2394L100.535 81.2344ZM84.1747 89.1765H82.8425L80.4177 101.304C80.2745 101.97 80.2279 102.682 80.4177 103.349C80.7974 104.538 81.75 104.966 83.5086 104.966C87.9801 104.966 90.4998 101.352 91.2608 96.9753C91.4507 96.071 91.499 95.2633 91.499 94.5972C91.499 90.4122 88.8361 89.1748 84.1747 89.1748V89.1765ZM88.0267 75.0992C87.3139 75.0992 86.5046 75.1459 85.5536 75.4323L83.1755 87.3696H83.9849C88.6928 87.3696 91.404 86.4186 92.3083 81.4242C92.4032 80.7581 92.4515 80.1403 92.4515 79.6173C92.4515 76.0984 90.2166 75.0992 88.0284 75.0992H88.0267Z" fill="#202C56"/>
<path d="M42.1569 47.4243C42.1569 47.6808 42.0104 47.9006 41.7539 47.9006C41.4608 47.9006 41.3509 47.6808 41.3509 47.3877C41.3509 47.1679 41.3143 46.4717 41.3143 46.3618C41.2044 43.6889 39.8871 42.8829 37.066 42.8829H33.5504L29.815 61.7414C29.6318 62.5108 29.4853 63.3518 29.4853 64.1578C29.4853 66.2811 31.1706 66.2078 32.781 66.3544C33.0008 66.391 33.1474 66.5009 33.1474 66.7208C33.1474 66.9406 32.9642 67.0871 32.7077 67.0871H22.0528C21.8696 67.0871 21.6864 66.9772 21.6864 66.7574C21.6864 66.5009 21.8696 66.391 22.0894 66.3544C23.6266 66.2445 24.6891 66.2445 25.6416 65.2553C26.4477 64.4126 26.7408 62.8022 26.924 61.7397L30.6593 42.8812H27.2537C25.973 42.8812 24.764 43.0644 23.5916 43.7972C22.3093 44.6398 21.7597 46.0671 21.1752 47.386C21.0286 47.7524 20.8088 47.8989 20.6256 47.8989C20.2959 47.8989 20.2592 47.5692 20.3325 47.3127L22.3093 40.8678C22.3825 40.648 22.5291 40.5381 22.7123 40.5381C22.9687 40.5381 23.042 40.7579 23.0787 41.0144C23.1153 41.6372 23.4817 41.7471 24.1045 41.7471H40.1435C40.9862 41.7471 41.6457 41.7105 41.9388 40.8678C42.0121 40.6846 42.122 40.5381 42.3784 40.5381C42.525 40.5381 42.7082 40.6114 42.7082 40.9045V40.9777L42.1586 47.4227L42.1569 47.4243Z" fill="#202C56"/>
<path d="M64.4565 43.2859C63.9802 42.6997 62.991 42.6264 61.8936 42.5165C61.7104 42.4798 61.5638 42.3333 61.5638 42.1135C61.5638 41.8936 61.7836 41.7471 62.0401 41.7471H71.8907C72.1471 41.7471 72.257 41.8936 72.257 42.1135C72.257 42.4066 72.0006 42.4798 71.7441 42.5165C70.4635 42.5897 69.4376 42.663 68.6316 43.6156C68.0087 44.3117 67.7156 45.3725 67.3876 47.0945L64.4948 61.6314C64.275 62.6572 64.1285 63.4982 64.1285 64.1944C64.1285 64.7806 64.2384 65.2202 64.4948 65.55C65.0078 66.1362 65.997 66.2094 67.0578 66.3194C67.2776 66.356 67.3876 66.5025 67.3876 66.6857C67.3876 66.9422 67.2044 67.0888 66.9845 67.0888H57.0607C56.8409 67.0888 56.6943 66.9422 56.6943 66.7224C56.6943 66.4659 56.9142 66.356 57.2073 66.3194C58.5262 66.2461 59.5138 66.1728 60.3564 65.2202C60.9793 64.5241 61.2724 63.4266 61.6021 61.7413L63.1043 54.124H49.8847L48.3825 61.6314C48.1627 62.6572 48.0162 63.4982 48.0162 64.1944C48.0162 64.7806 48.1261 65.2202 48.3825 65.55C48.8955 66.1362 49.8481 66.2461 50.9455 66.3194C51.1287 66.356 51.2753 66.5025 51.2753 66.6857V66.7224C51.2753 66.9422 51.0554 67.0888 50.8356 67.0888H40.9484C40.7286 67.0888 40.582 66.9422 40.582 66.7224C40.582 66.4659 40.8019 66.356 41.095 66.3194C42.4139 66.2461 43.4015 66.1728 44.2441 65.2202C44.867 64.5241 45.1601 63.4266 45.4898 61.7413L48.3825 47.1312C48.6024 46.1419 48.7123 45.3009 48.7123 44.6415C48.7123 44.0919 48.639 43.6156 48.3459 43.2859C47.8696 42.6997 46.8804 42.6264 45.7829 42.5165C45.5631 42.4798 45.4532 42.3333 45.4532 42.1501V42.1135C45.4532 41.8936 45.673 41.7471 45.9295 41.7471H55.78C55.9999 41.7471 56.1831 41.8936 56.1464 42.1135C56.1464 42.3699 55.9632 42.4798 55.6335 42.5165C54.3528 42.5897 53.327 42.663 52.521 43.6156C51.8981 44.3117 51.605 45.4092 51.2753 47.0945L50.1029 52.9166H63.3591L64.4948 47.1312C64.678 46.1419 64.8246 45.3009 64.8246 44.6415C64.8246 44.0553 64.7147 43.6156 64.4582 43.2859H64.4565Z" fill="#202C56"/>
<path d="M77.3088 43.3225C76.7958 42.6997 75.6984 42.6264 74.6359 42.5165C74.416 42.4798 74.3061 42.3333 74.3061 42.1501C74.3061 41.8936 74.526 41.7471 74.7824 41.7471H90.9314C91.2977 41.7471 91.4809 41.9303 91.4809 42.2234V42.3699L90.7482 47.4959C90.7115 47.6791 90.6383 47.9355 90.3452 47.9355C90.1253 47.9355 90.0521 47.7523 90.0154 47.5691C89.759 45.5557 89.8322 43.101 87.0128 42.9178C85.6222 42.8445 84.1933 42.8812 82.7645 42.9178C81.3373 42.9545 81.0075 43.2842 80.7511 44.4916L79.0307 53.0232H81.0442C82.6929 53.0232 84.633 52.9499 85.3657 52.6568C86.6098 52.1072 86.9029 51.083 87.2692 49.9473C87.3425 49.6908 87.4891 49.5443 87.7089 49.5443C87.8921 49.5443 88.0386 49.6908 88.0386 49.874V49.9473C87.8188 51.6309 86.6464 57.0883 86.4649 57.8194C86.3916 58.0392 86.245 58.2224 85.9886 58.2224C85.8054 58.2224 85.6955 58.0759 85.6955 57.8927V57.8194C85.7688 57.3431 85.8054 56.8302 85.7688 56.3539C85.6222 54.2306 83.3157 54.1573 81.5937 54.1573H78.8109L77.0906 62.9087C77.0173 63.2751 76.9441 63.6048 76.9441 63.9346C76.9441 64.7406 77.2372 65.3268 78.1165 65.6182C78.7759 65.8747 80.1665 66.0213 81.2656 66.0213C82.3648 66.0213 83.6454 65.8381 84.3782 65.6549C86.758 65.0687 87.9304 63.3117 88.8463 61.2234C88.9562 60.9669 89.1394 60.857 89.3226 60.857C89.5425 60.857 89.6524 61.0402 89.6524 61.2234V61.4066C89.3593 62.579 88.6998 64.5558 87.8954 66.4226C87.7122 66.8623 87.3825 67.0821 86.8696 67.0821H70.1711C69.9512 67.0821 69.8047 66.9355 69.8047 66.7157C69.8047 66.4592 70.0245 66.3493 70.3176 66.3127C71.6366 66.2394 72.4409 66.0929 73.1737 65.2136C73.7965 64.5174 74.0896 63.42 74.4544 61.7346L77.3471 47.1245C77.5303 46.1353 77.6768 45.3309 77.6768 44.6714C77.6768 44.0852 77.5669 43.6089 77.3104 43.3158L77.3088 43.3225Z" fill="#202C56"/>
<path d="M26.3118 39.249H5.79297V18.7302C5.79297 30.063 14.9791 39.249 26.3118 39.249Z" fill="#F9D04A"/>
<path d="M79.1719 120.132H89.0324V110.271C83.5867 110.271 79.1719 114.686 79.1719 120.132Z" fill="#202C56"/>
<path d="M98.8957 110.27H89.0352V120.13C94.4809 120.13 98.8957 115.715 98.8957 110.27Z" fill="#6AC379"/>
<path d="M102.828 81.6308C102.828 76.7346 106.795 72.7661 111.691 72.7661C106.795 72.7661 102.828 68.7992 102.828 63.9031C102.828 68.7975 98.8593 72.7661 93.9648 72.7661C98.8593 72.7661 102.828 76.733 102.828 81.6308Z" fill="#F9D04A"/>
</g>
<defs>
<clipPath id="clip0_535_220">
<rect width="112" height="120.132" fill="white"/>
</clipPath>
</defs>
</svg>
